<?xml version="1.0" encoding="UTF-8" standalone="no"?>
<svg width="170px" height="200px" viewBox="0 0 170 200" version="1.1" xmlns="http://www.w3.org/2000/svg" xmlns:xlink="http://www.w3.org/1999/xlink">
    <!-- Generator: Sketch 3.7.2 (28276) - http://www.bohemiancoding.com/sketch -->
    <title>Shape</title>
    <desc>Created with Sketch.</desc>
    <defs></defs>
    <g id="Circle-Stickersheet" stroke="none" stroke-width="1" fill="none" fill-rule="evenodd">
        <g id="Artboard-1" transform="translate(-549.000000, -179.000000)" fill="#B1E1F6">
            <path d="M693.5,287.333333 L693.5,204 L634,204 L634,352.046875 C644.536458,346.578125 653.966146,340.631944 662.289062,334.208333 C683.096354,318.236111 693.5,302.611111 693.5,287.333333 L693.5,287.333333 Z M719,187.333333 L719,287.333333 C719,294.798611 717.516927,302.198785 714.550781,309.533854 C711.584635,316.868924 707.910156,323.37934 703.527344,329.065104 C699.144531,334.750868 693.920573,340.284722 687.855469,345.666667 C681.790365,351.048611 676.190104,355.519097 671.054687,359.078125 C665.919271,362.637153 660.5625,366.000868 654.984375,369.169271 C649.40625,372.337674 645.44401,374.486111 643.097656,375.614583 C640.751302,376.743056 638.869792,377.611111 637.453125,378.21875 C636.390625,378.739583 635.239583,379 634,379 C632.760417,379 631.609375,378.739583 630.546875,378.21875 C629.130208,377.611111 627.248698,376.743056 624.902344,375.614583 C622.55599,374.486111 618.59375,372.337674 613.015625,369.169271 C607.4375,366.000868 602.080729,362.637153 596.945312,359.078125 C591.809896,355.519097 586.209635,351.048611 580.144531,345.666667 C574.079427,340.284722 568.855469,334.750868 564.472656,329.065104 C560.089844,323.37934 556.415365,316.868924 553.449219,309.533854 C550.483073,302.198785 549,294.798611 549,287.333333 L549,187.333333 C549,185.076389 549.841146,183.123264 551.523438,181.473958 C553.205729,179.824653 555.197917,179 557.5,179 L710.5,179 C712.802083,179 714.794271,179.824653 716.476562,181.473958 C718.158854,183.123264 719,185.076389 719,187.333333 L719,187.333333 Z" id="Shape"></path>
        </g>
    </g>
</svg>